<?xml version="1.0" encoding="UTF-8"?>
<!DOCTYPE svg PUBLIC "-//W3C//DTD SVG 1.1//EN" "http://www.w3.org/Graphics/SVG/1.1/DTD/svg11.dtd">
<!-- Creator: CorelDRAW -->
<svg xmlns="http://www.w3.org/2000/svg" xml:space="preserve" width="31.7403mm" height="31.7371mm" version="1.1" style="shape-rendering:geometricPrecision; text-rendering:geometricPrecision; image-rendering:optimizeQuality; fill-rule:evenodd; clip-rule:evenodd"
viewBox="0 0 232.58 232.56"
 xmlns:xlink="http://www.w3.org/1999/xlink"
 xmlns:xodm="http://www.corel.com/coreldraw/odm/2003">
 <defs>
  <style type="text/css">
   <![CDATA[
    .fil0 {fill:#FEFEFE}
   ]]>
  </style>
 </defs>
 <g id="Layer_x0020_1">
  <metadata id="CorelCorpID_0Corel-Layer"/>
  <path class="fil0" d="M77.88 29c29.96,-2.29 54.08,21.26 56.17,48.53 0.8,10.45 -1.35,19.06 -5.55,27.65 -0.41,0.85 -0.74,1.58 -1.14,2.27 -0.53,0.91 -0.69,1.06 -1.23,1.89 -3.23,4.99 -3.79,5.31 -7.27,9.17 -0.68,0.75 -0.71,0.64 -1.73,1.67 -7.57,7.67 -20.24,13.01 -31.78,13.87 -30.14,2.24 -54.49,-21.21 -56.35,-48.86 -2.03,-30.29 21.18,-54.07 48.87,-56.18zm75.84 90.73c0.75,-1.92 2.09,-4.28 2.92,-6.24 2.76,-6.56 4.82,-14.34 5.75,-21.52 6.67,-51.91 -36.28,-96.8 -89.07,-91.55 -22.05,2.19 -38.47,12.51 -49.44,23.4 -26.31,26.1 -33.63,71.35 -7.88,106.33 8.82,11.98 23.48,24.35 43.12,29.79 15.74,4.36 32.31,4.14 48.06,-1 4.85,-1.58 8.51,-3.62 12.61,-5.25 1.71,1.11 4.6,4.36 6.1,5.87l54.13 54.13c3.93,3.9 8.27,7.92 11.93,11.96 8.79,9.68 25.05,8.77 33.77,0.03 9.38,-9.4 8.97,-24.79 -0.09,-34.03 -7.99,-8.15 -15.95,-15.98 -24.04,-24.04 -8.1,-8.06 -15.89,-16.04 -24.05,-24.03 -6.76,-6.62 -17.35,-16.94 -23.81,-23.83z"/>
 </g>
</svg>
