<?xml version="1.0" encoding="UTF-8"?>
<!DOCTYPE svg PUBLIC "-//W3C//DTD SVG 1.1//EN" "http://www.w3.org/Graphics/SVG/1.1/DTD/svg11.dtd">
<!-- Creator: CorelDRAW -->
<svg xmlns="http://www.w3.org/2000/svg" xml:space="preserve" width="31.7403mm" height="31.737mm" version="1.1" style="shape-rendering:geometricPrecision; text-rendering:geometricPrecision; image-rendering:optimizeQuality; fill-rule:evenodd; clip-rule:evenodd"
viewBox="0 0 309.82 309.79"
 xmlns:xlink="http://www.w3.org/1999/xlink"
 xmlns:xodm="http://www.corel.com/coreldraw/odm/2003">
 <defs>
  <style type="text/css">
   <![CDATA[
    .fil0 {fill:#3A3285}
   ]]>
  </style>
 </defs>
 <g id="Layer_x0020_1">
  <metadata id="CorelCorpID_0Corel-Layer"/>
  <path class="fil0" d="M103.74 38.63c39.9,-3.04 72.04,28.32 74.82,64.65 1.07,13.93 -1.8,25.39 -7.39,36.84 -0.55,1.13 -0.98,2.1 -1.52,3.02 -0.71,1.21 -0.92,1.41 -1.64,2.52 -4.3,6.65 -5.05,7.07 -9.68,12.21 -0.9,1 -0.95,0.85 -2.3,2.22 -10.08,10.22 -26.96,17.33 -42.33,18.47 -40.15,2.99 -72.59,-28.26 -75.06,-65.09 -2.71,-40.35 28.22,-72.03 65.1,-74.84zm101.02 120.86c1,-2.56 2.79,-5.7 3.89,-8.31 3.67,-8.74 6.43,-19.1 7.66,-28.67 8.88,-69.15 -48.33,-128.95 -118.65,-121.95 -29.37,2.92 -51.24,16.67 -65.86,31.17 -35.04,34.77 -44.79,95.04 -10.49,141.63 11.74,15.95 31.28,32.44 57.44,39.68 20.97,5.8 43.05,5.51 64.02,-1.34 6.46,-2.11 11.34,-4.83 16.79,-7 2.28,1.48 6.13,5.81 8.12,7.81l72.11 72.11c5.23,5.19 11.01,10.55 15.9,15.93 11.7,12.89 33.37,11.68 44.99,0.04 12.49,-12.52 11.95,-33.02 -0.12,-45.33 -10.65,-10.85 -21.25,-21.29 -32.03,-32.02 -10.79,-10.74 -21.16,-21.37 -32.04,-32.01 -9,-8.81 -23.12,-22.56 -31.72,-31.75z"/>
 </g>
</svg>
